<svg xmlns="http://www.w3.org/2000/svg" xmlns:xlink="http://www.w3.org/1999/xlink" width="636" height="542" viewBox="0 0 636 542"><defs><style>.a{fill:#efeeff;opacity:0.8;}.b{opacity:0.5;fill:url(#a);}.c{fill:url(#c);}.d{fill:#4099f1;}.e{fill:url(#d);}.f,.w{fill:#fff;}.g{fill:#e0eafc;}.h{fill:#1d164d;}.i{fill:url(#e);}.j{fill:#eaf5ff;}.k{fill:url(#f);}.l{fill:url(#h);}.m{fill:url(#l);}.n{fill:url(#n);}.o{fill:url(#o);}.p{fill:#ffd6c7;}.q{fill:url(#p);}.r{fill:url(#q);}.s{fill:url(#r);}.t{fill:url(#s);}.u{fill:url(#t);}.v{fill:url(#u);}.w{opacity:0.3;}.x{fill:url(#v);}.y{fill:url(#w);}.z{fill:url(#x);}.aa{fill:url(#y);}.ab{fill:url(#z);}.ac{fill:#ffc0ac;}.ad{fill:url(#aa);}.ae{fill:url(#ab);}.af{fill:url(#ac);}.ag{fill:url(#ad);}.ah{fill:url(#ae);}.ai{fill:url(#af);}.aj{fill:url(#ag);}.ak{fill:url(#ah);}.al{fill:url(#ai);}.am{fill:url(#aj);}.an{fill:url(#ak);}.ao{fill:url(#al);}.ap{fill:url(#am);}.aq{fill:url(#an);}.ar{fill:#cfdef3;}.as{fill:url(#ao);}.at{filter:url(#j);}</style><linearGradient id="a" y1="0.5" x2="1" y2="0.5" gradientUnits="objectBoundingBox"><stop offset="0" stop-color="#4099f1"/><stop offset="1" stop-color="#acd4f3"/></linearGradient><linearGradient id="c" x1="5.453" y1="0.483" x2="6.295" y2="0.533" xlink:href="#a"/><linearGradient id="d" x1="0.781" y1="0.483" x2="1.624" y2="0.533" xlink:href="#a"/><linearGradient id="e" x1="0.5" y1="-0.45" x2="0.5" y2="0.723" gradientUnits="objectBoundingBox"><stop offset="0" stop-color="#c9e2f4"/><stop offset="1" stop-color="#eaf5ff"/></linearGradient><linearGradient id="f" y1="0.5" x2="1" y2="0.5" gradientUnits="objectBoundingBox"><stop offset="0" stop-color="#b24592"/><stop offset="1" stop-color="#f15f79"/></linearGradient><linearGradient id="h" y1="0.5" x2="1" y2="0.5" gradientUnits="objectBoundingBox"><stop offset="0" stop-color="#f2709c"/><stop offset="1" stop-color="#ff9472"/></linearGradient><filter id="j" x="411.455" y="440.317" width="57.954" height="57.954" filterUnits="userSpaceOnUse"><feOffset dy="5" input="SourceAlpha"/><feGaussianBlur stdDeviation="2.5" result="k"/><feFlood flood-opacity="0.2"/><feComposite operator="in" in2="k"/><feComposite in="SourceGraphic"/></filter><linearGradient id="l" x1="0.73" y1="0.904" x2="0.497" y2="0.157" xlink:href="#h"/><linearGradient id="n" x1="0.069" y1="1.505" x2="0.741" y2="-0.061" gradientUnits="objectBoundingBox"><stop offset="0" stop-color="#fbd3e9"/><stop offset="1" stop-color="#bb377d"/></linearGradient><linearGradient id="o" x1="1.441" y1="1.203" x2="0.539" y2="0.489" gradientUnits="objectBoundingBox"><stop offset="0" stop-color="#e0eafc"/><stop offset="1" stop-color="#fff"/></linearGradient><linearGradient id="p" x1="0.234" y1="0.964" x2="0.55" y2="0.33" gradientUnits="objectBoundingBox"><stop offset="0" stop-color="#1d164d"/><stop offset="1" stop-color="#4a4975"/></linearGradient><linearGradient id="q" x1="-0.035" y1="1.329" x2="0.413" y2="0.45" gradientUnits="objectBoundingBox"><stop offset="0" stop-color="#ffc0ac"/><stop offset="1" stop-color="#ffd6c7"/></linearGradient><linearGradient id="r" x1="0.595" y1="1.107" x2="0.416" y2="-0.032" xlink:href="#p"/><linearGradient id="s" x1="0.594" y1="1.115" x2="0.46" y2="-0.114" xlink:href="#q"/><linearGradient id="t" x1="0.417" y1="-0.753" x2="0.615" y2="1.242" gradientUnits="objectBoundingBox"><stop offset="0" stop-color="#db4981"/><stop offset="1" stop-color="#db4981" stop-opacity="0"/></linearGradient><linearGradient id="u" x1="0.573" y1="2.524" x2="0.495" y2="0.02" xlink:href="#t"/><linearGradient id="v" x1="1.104" y1="1.486" x2="0.144" y2="-0.081" gradientUnits="objectBoundingBox"><stop offset="0" stop-color="#e0eafc"/><stop offset="1" stop-color="#e0eafc" stop-opacity="0"/></linearGradient><linearGradient id="w" x1="0.5" y1="-1.404" x2="0.5" y2="1.776" xlink:href="#q"/><linearGradient id="x" x1="0.5" y1="-1.405" x2="0.5" y2="1.776" xlink:href="#q"/><linearGradient id="y" x1="1.442" y1="1.292" x2="0.296" y2="0.381" xlink:href="#h"/><linearGradient id="z" x1="0.397" y1="-0.26" x2="0.556" y2="1.076" xlink:href="#h"/><linearGradient id="aa" x1="-14.552" y1="0.483" x2="-13.709" y2="0.533" xlink:href="#a"/><linearGradient id="ab" x1="3.687" y1="0.639" x2="-1.043" y2="0.436" xlink:href="#v"/><linearGradient id="ac" x1="-0.811" y1="-0.198" x2="0.795" y2="0.743" xlink:href="#v"/><linearGradient id="ad" x1="0.365" y1="1.155" x2="0.558" y2="0.268" xlink:href="#p"/><linearGradient id="ae" x1="0.296" y1="1.521" x2="0.595" y2="-0.106" xlink:href="#f"/><linearGradient id="af" x1="0.047" y1="1.18" x2="0.566" y2="0.323" xlink:href="#p"/><linearGradient id="ag" x1="0.013" y1="1.281" x2="0.499" y2="0.403" xlink:href="#q"/><linearGradient id="ah" x1="0.029" y1="1.032" x2="0.589" y2="0.22" xlink:href="#q"/><linearGradient id="ai" x1="-0.01" y1="0.942" x2="0.826" y2="0.416" xlink:href="#q"/><linearGradient id="aj" x1="-0.611" y1="0.091" x2="0.983" y2="0.612" xlink:href="#f"/><linearGradient id="ak" x1="-0.41" y1="-0.155" x2="1.044" y2="0.737" xlink:href="#f"/><linearGradient id="al" x1="0.093" y1="0.996" x2="0.805" y2="0.191" gradientUnits="objectBoundingBox"><stop offset="0" stop-color="#b24592"/><stop offset="1" stop-color="#b24592" stop-opacity="0"/></linearGradient><linearGradient id="am" x1="0.327" y1="0.821" x2="1.159" y2="0.239" xlink:href="#al"/><linearGradient id="an" x1="0.505" y1="0.374" x2="0.197" y2="1.699" xlink:href="#al"/><linearGradient id="ao" x1="0.421" y1="0.483" x2="1.264" y2="0.533" xlink:href="#a"/></defs><g transform="translate(-548.466 -57)"><g transform="translate(630.884 57)"><ellipse class="a" cx="271.283" cy="271" rx="271.283" ry="271" transform="translate(0 0)"/><circle class="b" cx="69.565" cy="69.565" r="69.565" transform="translate(10.744 394.729)"/><circle class="b" cx="45.478" cy="45.478" r="45.478" transform="translate(387.961)"/><g transform="translate(71.954 18.346)"><path class="c" d="M723.2,100.537l-1.89,7.488-2.472-10.614-10.177-7.124,37.947-14.248-12.54,31.986Z" transform="translate(-708.663 -76.039)"/><path class="d" d="M721.7,108.44l1.89-7.488,10.65-13.485L719.225,97.827Z" transform="translate(-709.047 -76.454)"/></g><g transform="translate(177.579 11.846)"><path class="e" d="M826.025,82.174l-.994,3.937-1.3-5.58-5.351-3.746,19.952-7.492-6.593,16.818Z" transform="translate(-818.381 -69.293)"/><path class="d" d="M825.233,86.33l.994-3.937,5.6-7.09-7.893,5.447Z" transform="translate(-818.583 -69.512)"/></g><g transform="translate(416.255 27.919)"><path class="f" d="M1087.48,108.23l1.717,6.8,2.246-9.643,9.247-6.473-34.477-12.945,11.393,29.061Z" transform="translate(-1066.213 -85.972)"/><path class="g" d="M1089.635,115.411l-1.717-6.8-9.676-12.252,13.639,9.412Z" transform="translate(-1066.65 -86.35)"/></g></g><g transform="translate(795.165 122.527)"><rect class="h" width="242.191" height="447.225" rx="20"/><rect class="g" width="226.773" height="28.123" transform="translate(7.709 50.431)"/><rect class="i" width="226.773" height="431.807" rx="12" transform="translate(7.709 7.709)"/><path class="f" d="M1027.879,133H824.234a11.577,11.577,0,0,0-11.564,11.564v31.158h226.773V144.564A11.577,11.577,0,0,0,1027.879,133Z" transform="translate(-804.961 -125.291)"/><circle class="j" cx="14.132" cy="14.132" r="14.132" transform="translate(106.964 14.938)"/><rect class="f" width="128.482" height="19.477" rx="2.498" transform="translate(56.854 60.068)"/><g transform="translate(194.973 60.068)"><path class="f" d="M1009.339,189.674a7.986,7.986,0,1,0,11.294,0A7.985,7.985,0,0,0,1009.339,189.674Zm8.91,8.909a4.614,4.614,0,1,1,0-6.526A4.614,4.614,0,0,1,1018.248,198.583Z" transform="translate(-1007 -187.334)"/><path class="f" d="M0,0H9.253a1.686,1.686,0,0,1,1.686,1.686v0A1.686,1.686,0,0,1,9.253,3.371H0a0,0,0,0,1,0,0V0A0,0,0,0,1,0,0Z" transform="translate(12.44 10.057) rotate(45)"/></g><g transform="translate(22.379 177.245)"><path class="f" d="M1019.1,309.335h-184a7.237,7.237,0,0,0-7.216,7.216v27.313a7.245,7.245,0,0,0,5.676,7.05,2.013,2.013,0,0,1,1.54,1.984v6.518a.818.818,0,0,0,1.4.577l8.287-8.309a2.054,2.054,0,0,1,1.454-.6H1019.1a7.238,7.238,0,0,0,7.216-7.217V316.551A7.237,7.237,0,0,0,1019.1,309.335Z" transform="translate(-827.893 -309.335)"/><g transform="translate(6.459 5.875)"><circle class="k" cx="14.432" cy="14.432" r="14.432"/><path class="f" d="M849.333,330.129a3.7,3.7,0,1,0-3.7-3.7A3.7,3.7,0,0,0,849.333,330.129Zm2.536,1.057H851.6a5.109,5.109,0,0,1-4.524,0H846.8a3.8,3.8,0,0,0-3.8,3.8v.951a1.586,1.586,0,0,0,1.585,1.585h9.51a1.585,1.585,0,0,0,1.584-1.585v-.951A3.8,3.8,0,0,0,851.869,331.186Z" transform="translate(-834.901 -315.697)"/></g><g transform="translate(49.755 9.25)"><rect class="j" width="66.501" height="4.525"/><rect class="j" width="66.501" height="4.525" transform="translate(0 9.36)"/><rect class="j" width="66.501" height="4.525" transform="translate(0 18.721)"/></g></g><g transform="translate(22.379 234.937)"><path class="f" d="M1019.1,369.335h-184a7.237,7.237,0,0,0-7.216,7.216v27.313a7.245,7.245,0,0,0,5.676,7.05,2.013,2.013,0,0,1,1.54,1.984v6.518a.818.818,0,0,0,1.4.577l8.287-8.309a2.054,2.054,0,0,1,1.454-.6H1019.1a7.238,7.238,0,0,0,7.216-7.217V376.551A7.237,7.237,0,0,0,1019.1,369.335Z" transform="translate(-827.893 -369.335)"/><g transform="translate(6.459 5.875)"><circle class="k" cx="14.432" cy="14.432" r="14.432"/><path class="f" d="M849.333,390.129a3.7,3.7,0,1,0-3.7-3.7A3.7,3.7,0,0,0,849.333,390.129Zm2.536,1.057H851.6a5.109,5.109,0,0,1-4.524,0H846.8a3.8,3.8,0,0,0-3.8,3.8v.951a1.586,1.586,0,0,0,1.585,1.585h9.51a1.585,1.585,0,0,0,1.584-1.585v-.951A3.8,3.8,0,0,0,851.869,391.186Z" transform="translate(-834.901 -375.697)"/></g><g transform="translate(49.755 9.25)"><rect class="j" width="66.501" height="4.525"/><rect class="j" width="66.501" height="4.525" transform="translate(0 9.36)"/><rect class="j" width="66.501" height="4.525" transform="translate(0 18.721)"/></g></g><g transform="translate(22.379 119.553)"><path class="f" d="M835.109,249.335h184a7.237,7.237,0,0,1,7.216,7.216v27.313a7.245,7.245,0,0,1-5.675,7.05,2.013,2.013,0,0,0-1.541,1.984v6.518a.818.818,0,0,1-1.4.577l-8.287-8.309a2.053,2.053,0,0,0-1.454-.6H835.109a7.238,7.238,0,0,1-7.216-7.217V256.551A7.237,7.237,0,0,1,835.109,249.335Z" transform="translate(-827.893 -249.335)"/><g transform="translate(163.104 5.875)"><circle class="l" cx="14.432" cy="14.432" r="14.432"/><path class="f" d="M1015.588,266.43a3.7,3.7,0,1,0-3.7,3.7A3.7,3.7,0,0,0,1015.588,266.43Zm-10.038,8.559v.951a1.585,1.585,0,0,0,1.584,1.585h9.51a1.586,1.586,0,0,0,1.585-1.585v-.951a3.8,3.8,0,0,0-3.8-3.8h-.274a5.107,5.107,0,0,1-4.523,0h-.275A3.8,3.8,0,0,0,1005.55,274.99Z" transform="translate(-997.457 -255.697)"/></g><g transform="translate(82.171 9.25)"><rect class="j" width="66.501" height="4.525" transform="translate(66.501 4.525) rotate(-180)"/><rect class="j" width="66.501" height="4.525" transform="translate(66.501 13.885) rotate(-180)"/><rect class="j" width="66.501" height="4.525" transform="translate(66.501 23.246) rotate(-180)"/></g></g><g transform="translate(25.717 60.068)"><rect class="f" width="21.501" height="3.673" transform="translate(21.501 3.673) rotate(-180)"/><g transform="translate(0 7.902)"><rect class="f" width="21.501" height="3.673" transform="translate(21.501 3.673) rotate(-180)"/></g><g transform="translate(0 15.804)"><rect class="f" width="21.501" height="3.673" transform="translate(21.501 3.673) rotate(-180)"/></g></g><g transform="translate(22.379 292.629)"><path class="f" d="M835.109,429.335h184a7.237,7.237,0,0,1,7.216,7.216v27.313a7.245,7.245,0,0,1-5.675,7.05,2.013,2.013,0,0,0-1.541,1.984v6.518a.818.818,0,0,1-1.4.577l-8.287-8.309a2.053,2.053,0,0,0-1.454-.6H835.109a7.238,7.238,0,0,1-7.216-7.217V436.551A7.237,7.237,0,0,1,835.109,429.335Z" transform="translate(-827.893 -429.335)"/><g transform="translate(163.104 5.875)"><circle class="l" cx="14.432" cy="14.432" r="14.432"/><path class="f" d="M1015.588,446.43a3.7,3.7,0,1,0-3.7,3.7A3.7,3.7,0,0,0,1015.588,446.43Zm-10.038,8.559v.951a1.585,1.585,0,0,0,1.584,1.585h9.51a1.586,1.586,0,0,0,1.585-1.585v-.951a3.8,3.8,0,0,0-3.8-3.8h-.274a5.107,5.107,0,0,1-4.523,0h-.275A3.8,3.8,0,0,0,1005.55,454.989Z" transform="translate(-997.457 -435.697)"/></g><g transform="translate(82.171 9.25)"><rect class="j" width="66.501" height="4.525" transform="translate(66.501 4.525) rotate(-180)"/><rect class="j" width="66.501" height="4.525" transform="translate(66.501 13.885) rotate(-180)"/><rect class="j" width="66.501" height="4.525" transform="translate(66.501 23.246) rotate(-180)"/></g></g><g class="at" transform="matrix(1, 0, 0, 1, -246.7, -65.53)"><circle class="h" cx="21.477" cy="21.477" r="21.477" transform="translate(418.95 442.82)"/></g><g transform="translate(183.851 389.176)"><path class="f" d="M1015.221,541.883H1008v7.059h-5.355v-7.059h-7.183v-5.067h7.183v-7.055H1008v7.055h7.224Z" transform="translate(-995.459 -529.761)"/></g></g><g transform="translate(1002.766 157.823)"><path class="m" d="M1191.943,308.7c-5.753,20-15.765,39.769-27.483,58.069l-57.317-42.651c11.323-15.177,20.4-35.009,20.4-35.009l-9.02-13.587-12.633,4.356a11.169,11.169,0,0,1-14.166-6.832l-20.535-58,12.441-7.131,25.122,44.9,29.738-11.458a30.219,30.219,0,0,1,10.918-2.033h8.885l18.232-1.561s13.732-.607,23.127,7.343S1200.616,278.583,1191.943,308.7Z" transform="translate(-1022.075 -164.177)"/><path class="m" d="M1191.943,308.7c-5.753,20-15.765,39.769-27.483,58.069l-57.317-42.651c11.323-15.177,20.4-35.009,20.4-35.009l-9.02-13.587-12.633,4.356a11.169,11.169,0,0,1-14.166-6.832l-20.535-58,12.441-7.131,25.122,44.9,29.738-11.458a30.219,30.219,0,0,1,10.918-2.033h8.885l18.232-1.561s13.732-.607,23.127,7.343S1200.616,278.583,1191.943,308.7Z" transform="translate(-1022.075 -164.177)"/><path class="n" d="M1167.948,372.76c-.376.588-.752,1.166-1.128,1.744.376-.578.752-1.156,1.118-1.744Z" transform="translate(-1025.553 -170.171)"/><path class="o" d="M1163.369,371.151,1106.042,328.5s-28.668,24.332-48.664,42.159-17.1,31.077-14.936,40.714,21.441,38.064,35.9,46.5l10.34,59.533h17.095c.665-10.754,2.072-30.2,4.365-46.283l12.9,3.151,3.508-14.58a57.508,57.508,0,0,1-11.833-7.362s10.6-29.873,29.873-54.686C1151.063,389.3,1157.433,380.411,1163.369,371.151Zm-79.654,43.113-6.1-9.473,16.623-13.655Z" transform="translate(-1020.974 -168.562)"/><path class="p" d="M1079.879,201.935a10.847,10.847,0,0,0-8.537-5.509c-6.242-.538-15.55-1.266-17.2-.989-2.534.424-1.262,3.315,2.409,4.028,3.672.732,10.417,2.775,11.014,6.264-1.33-.607-7.222-2.163-7.945-.718s1.927,1.927,3.795,4.758,7.109,4.815,7.109,4.815l12.443-7.135Z" transform="translate(-1021.407 -163.721)"/><path class="q" d="M1152.027,206.971s-16.089-9.877-14.282-22.525,15.177,3.975,23.609,3.614,11.323-4.457,15.418-2.891,2.771,6.143,2.771,6.143,4.769-.843,4.433,4.1-2.144,11.564-1.542,15.9l-17.225,6.143Z" transform="translate(-1024.49 -163.151)"/><path class="r" d="M1179.4,237.418V217.3s6.264-1.385,4.818-6.926-6.805-2.229-6.745.482c0,0-5.36-3.975-3.794-12.045,0,0-12.046,6.805-23.429,1.546,0,0,1.285,24.492,2.971,29.15s7.95,3.373,7.95,3.373v6.1l4.136,7.227Z" transform="translate(-1024.95 -163.846)"/><path class="s" d="M1115.033,236.625l-11.272,4.484a1.724,1.724,0,0,0-.908,2.366l10.26,20.729a1.724,1.724,0,0,0,2.207.827l10.478-4.358a1.723,1.723,0,0,0,.907-2.3l-9.467-20.854A1.723,1.723,0,0,0,1115.033,236.625Z" transform="translate(-1023.22 -165.217)"/><path class="t" d="M1125.215,255.413a17.391,17.391,0,0,0,3.109,1c1.686.361,1.686,3.956,1.386,6.244a8.386,8.386,0,0,0,.6,4.216l-11.143,7.408s-12.969-14.053-12.005-17.827,6.795,2.65,11.548,2.69a11.678,11.678,0,0,1,7.246,2.209S1127.025,259.4,1125.215,255.413Z" transform="translate(-1023.381 -165.899)"/><path class="u" d="M1129.67,292.03l17.406,23.517a10.67,10.67,0,0,0,15.548,1.73l33.533-28.944s-28.263,28.347-33.245,39.911-10.16,8.552-11.846,4.216-8.191,1.325-10.359-3.614,1.414-12.648-1.1-14.575-4.562,5.782-5.887.482.6-11.484-2.128-10.921S1132.966,298.056,1129.67,292.03Z" transform="translate(-1024.202 -167.101)"/><path class="v" d="M1172.765,274.72,1155.74,289.5l-24.553-22.185,22.947,17.2Z" transform="translate(-1024.257 -166.337)"/><path class="w" d="M1202.886,247.538a9.268,9.268,0,0,0-1.233-1.293c-4.941-4.18-11.078-5.993-15.789-6.773a22.55,22.55,0,0,1-42.066,1.968,29.867,29.867,0,0,0-3.307,1.057l-14.28,5.5a41.305,41.305,0,0,0,76.675-.46Z" transform="translate(-1024.076 -165.324)"/><path class="x" d="M1079,406.182l16.623-13.651,11.484-25.7Z" transform="translate(-1022.359 -169.956)"/><path class="y" d="M1107.578,524.526h-17.1l1.71,9.852,14.936-1.686S1107.269,529.554,1107.578,524.526Z" transform="translate(-1022.777 -175.69)"/><path class="z" d="M1129.648,464.637l-3.51,14.586,8.781,2.146,2.409-13.732a54.3,54.3,0,0,1-7.68-3Z" transform="translate(-1024.073 -173.512)"/><path class="aa" d="M1089.865,526.853s10.843,7.128,16.5,1.346c0,0,5.3,9.456,3.912,13.793s-41.256,16.241-44.87,16.562-3.854-5.782,3.934-11.323,14.856-8.673,16.864-14.053S1089.865,526.853,1089.865,526.853Z" transform="translate(-1021.777 -175.775)"/><path class="ab" d="M1131.131,480.434s3.54-1.686,3.942-7.066-.776-6.789-.776-6.789a11.292,11.292,0,0,1,6.8-.92c3.373.8,5.541,4.255,5.461,10.841s5.621,30.8,3.453,35.132-5.42,1.927-8.673-6.143-6.612-17.707-9.449-20.839S1131.131,480.434,1131.131,480.434Z" transform="translate(-1024.228 -173.542)"/><path class="ac" d="M1175.8,223.406c-2.73,7.539-14.214,10.37-14.214,10.37v3.694C1173.233,237.469,1175.8,223.406,1175.8,223.406Z" transform="translate(-1025.362 -164.74)"/><path class="ad" d="M1041.489,184.785l1.717,6.8,2.246-9.643,9.247-6.473-34.477-12.945,11.393,29.061Z" transform="translate(-1020.222 -162.526)"/><path class="d" d="M1043.644,191.965l-1.717-6.8-9.676-12.252,13.639,9.412Z" transform="translate(-1020.659 -162.904)"/><path class="ae" d="M1078.838,407.667s-10.118,35.253.723,53.08c0,0-2.7-25.85,5.377-43.6Z" transform="translate(-1022.197 -171.441)"/><path class="af" d="M1117.327,457c-3.131,7.884-4.577,18.791-4.577,18.791.68-5.237,5.059-12,8.1-16.163C1119.675,458.821,1118.491,457.953,1117.327,457Z" transform="translate(-1023.587 -173.235)"/></g><g transform="translate(548.466 134.573)"><path class="ag" d="M747.432,326.347l-45.734-7.68-70.609,7.467h0l-.142,61.915L559,478.313l10.918,11.236,95.863-78.6a22.35,22.35,0,0,0,7.96-14.223l4.828-34.932h33L676.4,447.553l17.345,9.4L756.818,346.1A13.338,13.338,0,0,0,747.432,326.347Z" transform="translate(-548.849 -144.088)"/><path class="ah" d="M778.434,229.326l-36.618,39.5a10.328,10.328,0,0,1-13.385,1.523l-20.68-14.04-4.336,58.541-28.35,3,.241-.019-4.529,10.147-18.656-7.7-19.311,2.043.019-9.636-18.213-7.555a11.911,11.911,0,0,1-7.777-15.177L625.216,235.2a18.677,18.677,0,0,1,11.862-11.65l7.381-2.409,4.587-1.494v-.01l4.577-1.494,13.732-4.481,23.175,2.168,9.6.578,4.809.279v.01l.559.029a13.505,13.505,0,0,1,8.654,3.816l.135.135,21.171,21.171,32.764-22.038Z" transform="translate(-550.566 -140.27)"/><path class="ai" d="M668.36,199.334s-8.352-9.636-13.491-13.652-6.1-21.361,7.87-20.718c0,0-2.249-16.221,13.169-16.221s22.645-4.5,29.713-9.8,10.921,4.657,6.264,18.791-20.718,25.7-20.718,25.7Z" transform="translate(-552.208 -137.5)"/><path class="f" d="M692.666,215.835l4.789.289a4.676,4.676,0,0,1-.193,1.147l-4.1,13.125a4.825,4.825,0,0,1-3.2,3.18,4.963,4.963,0,0,1-1.4.212,4.816,4.816,0,0,1-3.016-1.06l-19.07-15.3a4.77,4.77,0,0,1-1.571-2.265l4.577-1.494Z" transform="translate(-552.7 -140.27)"/><path class="f" d="M711.132,217.807a18.133,18.133,0,0,1-.771,3.922l-4.086,13.125a19.273,19.273,0,0,1-30.461,9.3l-19.07-15.3a19.144,19.144,0,0,1-6.254-9.049L645.9,221.3a24.069,24.069,0,0,0,7.825,11.313l19.07,15.3a24.091,24.091,0,0,0,38.073-11.621l4.1-13.125a23.717,23.717,0,0,0,.626-2.467A13.839,13.839,0,0,0,711.132,217.807Z" transform="translate(-552.009 -140.421)"/><path class="f" d="M701.918,216.517a9.412,9.412,0,0,1-.4,2.293l-4.1,13.125a9.661,9.661,0,0,1-9.193,6.774,9.724,9.724,0,0,1-6.032-2.12l-19.07-15.3a9.582,9.582,0,0,1-3.132-4.529l-4.577,1.494a14.353,14.353,0,0,0,4.693,6.794l19.07,15.3a14.556,14.556,0,0,0,9.049,3.18,14.21,14.21,0,0,0,4.211-.636,14.42,14.42,0,0,0,9.579-9.521l4.1-13.125a13.6,13.6,0,0,0,.617-3.44v-.01Z" transform="translate(-552.355 -140.374)"/><path class="aj" d="M669.276,211.934l-2.731-20.076s-10.118-5.7-7.066-11.564,13.17-3.614,11.725,4.738c0,0,6.745-5.541,2.65-15.5,0,0,17.987,6.424,24.974-3.534,0,0,1.084,22.565.6,31.961s-7.709,8.673-7.709,8.673l.723,7.468-4.1,13.13Z" transform="translate(-552.482 -138.537)"/><path class="ak" d="M791.447,214.812c-1.718-1.287-3.831-2.489-5.731-2.489a14.954,14.954,0,0,1,7.83-.543c3.794.964,4.517-.241,3.192-1.807s-11.684-4.818-15.78-2.83-4.035,8.01-6.625,12.407l10.216,9.511,7.437-8.023A4.21,4.21,0,0,0,791.447,214.812Z" transform="translate(-556.679 -140.01)"/><path class="al" d="M679.231,318a12.785,12.785,0,0,0,6.445-2.77c3.132-2.53,2.348-4.7,4.336-5.059s.9,6.986-1.445,10.479l7.529,3.436a4.464,4.464,0,0,1,2.136,6.064l-2.6,5.176a6.242,6.242,0,0,1-8.237,2.847l-14.189-6.682Z" transform="translate(-553.002 -143.779)"/><path class="am" d="M565.624,475.175s.587,12.72,11.383,13.6c0,0,5-2.337,3.316,3.85s-3.436,14.9-1.87,23.695-.964,9.275-3.493,10.841-6.023-9.4-13.491-19.875c-5.028-7.057-9.785-14.277-12.355-18.242a4.016,4.016,0,0,1,.883-5.339l11.423-9.019a3,3,0,0,1,4.205.487Z" transform="translate(-548.466 -149.738)"/><path class="an" d="M685.2,440.06h0a2.667,2.667,0,0,0-3.744-1.154L669.2,446.013a3.908,3.908,0,0,0-1.464,5.278c5.765,10.4,23.165,41.58,25.971,43.985,3.373,2.891,6.5-1.807,5.059-9.034s-1.926-18.791.362-23.97,3.532-5.486,2.308-7.562C701.439,454.71,685.363,454.345,685.2,440.06Z" transform="translate(-552.785 -148.447)"/><g transform="translate(157.186 97.367)"><path class="ao" d="M724.914,260.344c-5.541-.322.723-4.256-5.461-8.352s-6.666-13.45-6.666-13.45l-1.2,18.67,18.942,12.86C724.862,265.531,730.009,260.639,724.914,260.344Z" transform="translate(-711.583 -238.542)"/></g><path class="ap" d="M677.951,315.669,638,286.479l22.806-40.312s-5.3,18.309-8.673,28.105,1.766,2.088,7.387,2.57-4.858,12.045-1.546,15.9,9.577-6.264,13.27-1.125-3.052,8.834,2.409,13.009S673.093,311.132,677.951,315.669Z" transform="translate(-551.722 -141.452)"/><path class="aq" d="M633.833,316.417l19.286,7.594-19.308,2.042Z" transform="translate(-551.569 -144.006)"/><path class="h" d="M683.083,362.6l3.234-21.6a12.153,12.153,0,0,0,4.114,10.279c4.939,4.1,8.07-3.534,12.045.521s2.409,8.754,6.5,6.706,3.373,4.1,7.107,4.1Z" transform="translate(-553.361 -144.9)"/><path class="ac" d="M692.205,207.931s-10.848.278-19.955-6.264c0,0,6.808,11.564,20.469,11.564Z" transform="translate(-552.967 -139.834)"/><g transform="translate(234.177 47.623)"><path class="ar" d="M791.479,212.393s.583.206,1.609.518a28,28,0,0,0,4.257.99,6.584,6.584,0,0,0,2.65-.093c.808-.263,1.076-.814,1.025-1.794a6.529,6.529,0,0,0-.3-1.5c-.172-.575-.347-1.14-.5-1.727-.313-1.2-.605-2.411-.846-3.636-.217-1.232-.4-2.472-.5-3.706a18.156,18.156,0,0,1-.1-1.84c-.015-.609-.015-1.21.025-1.8a13.814,13.814,0,0,1,.15-1.746,14.65,14.65,0,0,1,.3-1.659,12.836,12.836,0,0,1,.992-2.93,7.8,7.8,0,0,1,.66-1.208c.118-.184.226-.367.342-.537l.385-.465a8.63,8.63,0,0,1,1.413-1.4,8.445,8.445,0,0,1,1.057-.7l.378-.229-.316.313c-.2.214-.522.479-.854.891a10.392,10.392,0,0,0-1.073,1.548l-.281.479-.231.544a8.051,8.051,0,0,0-.453,1.179,9.579,9.579,0,0,0-.351,1.326,12.76,12.76,0,0,0-.253,1.447,13.191,13.191,0,0,0-.132,1.552c-.026.532-.057,1.074-.035,1.631a32.564,32.564,0,0,0,.228,3.431c.119,1.169.317,2.352.543,3.532s.471,2.36.748,3.5c.153.579.3,1.167.435,1.735a8.192,8.192,0,0,1,.27,1.942,3.532,3.532,0,0,1-.559,2.074,2.926,2.926,0,0,1-1.786,1.145,6.923,6.923,0,0,1-3.236-.211,19.4,19.4,0,0,1-4.192-1.718C791.989,212.744,791.479,212.393,791.479,212.393Z" transform="translate(-791.479 -186.92)"/><path class="ar" d="M799.328,188.281l-1.111,2.283c-.305.679-.679,1.446-1.009,2.283-.189.41-.32.852-.48,1.286s-.264.889-.411,1.332c-.093.449-.214.9-.28,1.341a10.444,10.444,0,0,0-.138,1.311,8.288,8.288,0,0,0,.012,1.241,7.589,7.589,0,0,0,.13,1.127c.081.345.132.678.187.977.1.278.174.534.241.746.126.428.191.694.191.694s-.195-.167-.519-.5c-.16-.166-.361-.369-.574-.619-.178-.267-.373-.581-.57-.939a4.932,4.932,0,0,1-.5-1.22,5.607,5.607,0,0,1-.295-1.456,7.873,7.873,0,0,1-.021-1.591,12.448,12.448,0,0,1,.273-1.607,12.653,12.653,0,0,1,.536-1.518,10.569,10.569,0,0,1,.705-1.369,9.807,9.807,0,0,1,.8-1.183,11.22,11.22,0,0,1,.82-.968A9.053,9.053,0,0,1,799.328,188.281Z" transform="translate(-791.576 -186.969)"/></g><g transform="translate(234.995 0)"><path class="as" d="M814.252,174.442l-2.85,11.291-3.727-16-15.347-10.743L849.549,137.5,830.64,185.733Z" transform="translate(-792.328 -137.5)"/><path class="d" d="M811.981,186.359l2.85-11.291,16.059-20.334-22.636,15.621Z" transform="translate(-792.907 -138.127)"/></g></g></g></svg>